<svg xmlns="http://www.w3.org/2000/svg" width="31" height="28"><defs><mask id="pmq9b" width="2" height="2" x="-1" y="-1"><path fill="#fff" d="M4 3h20v18H4z"/><path d="M14.393 20.75L23.92 3.91a.697.697 0 0 0 .03-.6c-.082-.19-.244-.31-.422-.31H4.476c-.178 0-.34.12-.422.31a.69.69 0 0 0 .03.6l9.526 16.84a.46.46 0 0 0 .392.25.459.459 0 0 0 .391-.25z"/></mask><filter id="pmq9a" width="55.5" height="54.6" x="-13" y="-14" filterUnits="userSpaceOnUse"><feOffset dx="1.5" dy="2.6" in="SourceGraphic" result="FeOffset1023Out"/><feGaussianBlur in="FeOffset1023Out" result="FeGaussianBlur1024Out" stdDeviation="2.8 2.8"/></filter></defs><g filter="url(#pmq9a)"><path fill="none" d="M14.393 20.75L23.92 3.91a.697.697 0 0 0 .03-.6c-.082-.19-.244-.31-.422-.31H4.476c-.178 0-.34.12-.422.31a.69.69 0 0 0 .03.6l9.526 16.84a.46.46 0 0 0 .392.25.459.459 0 0 0 .391-.25z" mask="url(&quot;#pmq9b&quot;)"/><path fill-opacity=".29" d="M14.393 20.75L23.92 3.91a.697.697 0 0 0 .03-.6c-.082-.19-.244-.31-.422-.31H4.476c-.178 0-.34.12-.422.31a.69.69 0 0 0 .03.6l9.526 16.84a.46.46 0 0 0 .392.25.459.459 0 0 0 .391-.25z"/></g><path fill="#353a43" d="M14.393 20.75L23.92 3.91a.697.697 0 0 0 .03-.6c-.082-.19-.244-.31-.422-.31H4.476c-.178 0-.34.12-.422.31a.69.69 0 0 0 .03.6l9.526 16.84a.46.46 0 0 0 .392.25.459.459 0 0 0 .391-.25z"/></svg>